<?xml version="1.0" encoding="utf-8"?>
<!-- Generator: Adobe Illustrator 21.0.0, SVG Export Plug-In . SVG Version: 6.00 Build 0)  -->
<svg version="1.1" id="Layer_1" xmlns="http://www.w3.org/2000/svg" xmlns:xlink="http://www.w3.org/1999/xlink" x="0px" y="0px"
	 viewBox="0 0 64 64" style="enable-background:new 0 0 64 64;" xml:space="preserve">
<path id="leaf" class="svg" d="M32,2c0,0,7.2,10,7.2,21.6s-7.1,20.8-7.1,20.8s-7.4-9.2-7.4-20.8S32,2,32,2z M4.5,21.1
	c0,0,3,9,10.2,15.4s15.9,8,15.9,8s-2.4-8.7-9.6-15.1S4.5,21.1,4.5,21.1z M59.7,21.1c0,0-3,9-10.2,15.4s-15.9,8-15.9,8
	s2.4-8.7,9.6-15.1S59.7,21.1,59.7,21.1z M59,44.5c0,0-5.7,3.9-12.6,4.2s-12.5-2.9-12.5-2.9s5.2-3.9,12.1-4.3
	C53,41.1,59,44.5,59,44.5z M5.3,44.5c0,0,5.7,3.9,12.6,4.2s12.5-2.9,12.5-2.9s-5.2-3.9-12.1-4.3C11.4,41.1,5.3,44.5,5.3,44.5z
	 M45.8,56.1c0,0-4.4-0.6-7.8-3.3s-4.7-6.6-4.7-6.6s4.1,0.3,7.6,3.1C44.3,52,45.8,56.1,45.8,56.1z M18.5,56.7c0,0,4.4-0.6,7.8-3.3
	s4.7-6.6,4.7-6.6s-4.1,0.3-7.6,3.1C19.9,52.6,18.5,56.7,18.5,56.7z M33.1,45.1h-1.8c0,0,0.5,11.4,5,17.7c0.5,0.2,1.9-0.4,2.9-0.4
	s1.4-0.9,1.4-0.9S34.4,56.6,33.1,45.1z"/>
</svg>
