<?xml version="1.0" encoding="utf-8"?>
<!-- Generator: Adobe Illustrator 21.0.0, SVG Export Plug-In . SVG Version: 6.00 Build 0)  -->
<svg version="1.1" id="Layer_1" xmlns="http://www.w3.org/2000/svg" xmlns:xlink="http://www.w3.org/1999/xlink" x="0px" y="0px"
	 viewBox="0 0 64 64" style="enable-background:new 0 0 64 64;" xml:space="preserve">
<style type="text/css">
	.st0{fill:none;stroke:#000000;stroke-width:2;stroke-miterlimit:10;}
</style>
<path id="processor" class="st0" d="M36.7,12.5V9.7H38c0.7,0,1.2-0.6,1.2-1.3v-5c0-0.7-0.5-1.3-1.2-1.3H11.4c-0.7,0-1.2,0.6-1.2,1.3v5
	c0,0.7,0.5,1.3,1.2,1.3h1.2v2.9c-4.4,1.9-7.2,6.3-7.2,11.3v33.4c0,2.8,2.2,5,4.8,5h29c2.7,0,4.8-2.2,4.8-5V23.8
	C44,18.9,41.1,14.4,36.7,12.5z M10,23.4c0.5,0,0.9-0.4,0.9-0.9c0.1-1.6,1.6-3.7,3-4.1c0.5-0.1,0.7-0.6,0.6-1.2
	c-0.1-0.5-0.6-0.8-1.1-0.6c-2.2,0.6-4.2,3.5-4.3,5.9C9.1,22.9,9.5,23.4,10,23.4z M5.4,27.9H44v27.4H5.4V27.9z M8.6,32h10.1
	 M13.6,44.9V32 M8.6,51.2H44 M8.6,47.9h8.2 M29.2,45V31 M21.8,44.9V31 M21.6,37.9h7.1 M39.8,34.6c0-3.5-6.5-3.8-6.5,0s0,2.1,0,6.3
	s6.5,4.3,6.5,0 M49.3,4.9l-3.8,0.4c-0.3,0-0.5,0.2-0.7,0.4c-0.1,0.2-0.2,0.5-0.1,0.8l2.4,7l-0.5,0.1C45,13.7,43.8,15.4,44,17
	l7.5,44.4c0.1,0.5,0.5,0.8,1,0.7l2.5-0.3c0.2,0,0.5-0.2,0.6-0.3c0.1-0.2,0.2-0.4,0.2-0.6l-2.5-45c0-0.8-0.5-1.6-1.1-2.2
	c-0.6-0.5-1.4-0.7-2.2-0.6l-0.5,0.1l0.9-7.3c0-0.3-0.1-0.5-0.3-0.7C49.9,4.9,49.6,4.8,49.3,4.9z M49.9,52.4l5.4-0.7"/>
</svg>
