<?xml version="1.0" encoding="utf-8"?>
<!-- Generator: Adobe Illustrator 21.0.0, SVG Export Plug-In . SVG Version: 6.00 Build 0)  -->
<svg version="1.1" id="Layer_1" xmlns="http://www.w3.org/2000/svg" xmlns:xlink="http://www.w3.org/1999/xlink" x="0px" y="0px"
	 viewBox="0 0 64 64" style="enable-background:new 0 0 64 64;" xml:space="preserve">
<style type="text/css">
	.st0{fill:#FFFFFF;stroke:#000000;stroke-width:2;stroke-miterlimit:10;}
</style>
<path id="_24-Cash_Register" class="st0" d="M63,45v16c0,1.1-0.9,2-2,2H3c-1.1,0-2-0.9-2-2V45H63z M3,45v-6l2-2h54l2,2v6 M59,37V14
	c0-1.1-0.8-2-1.9-2c0,0-0.1,0-0.1,0h-3 M5,37V14c0-1.1,0.8-2,1.9-2c0,0,0.1,0,0.1,0h3 M27,1h26c0.6,0,1,0.4,1,1v12c0,0.6-0.4,1-1,1
	H27c-0.6,0-1-0.4-1-1V2C26,1.4,26.4,1,27,1z M30,5h20v6H30V5z M1,49h24l1,4h12l1-4h24 M28,49h8 M26,24h4v-4h-4 M34,20h4v4h-4V20z
	 M42,20h4v4h-4V20z M42,28h4v4h-4V28z M34,28h4v4h-4V28z M26,28h4v4h-4V28z M6,41h2 M56,41h2 M10,41h44 M10,5h12v15H10V5z M22,12h4
	 M10,24h12v8H10V24z M50,19h4v13h-4V19z M8,20h16 M10,28h12 M13,9h6 M13,13h2 M17,13h2 M5,55v3c0,0.5,0.4,1,1,1c0,0,0,0,0,0h3"/>
</svg>
