<?xml version="1.0" encoding="utf-8"?>
<!-- Generator: Adobe Illustrator 21.0.0, SVG Export Plug-In . SVG Version: 6.00 Build 0)  -->
<svg version="1.1" id="Layer_1" xmlns="http://www.w3.org/2000/svg" xmlns:xlink="http://www.w3.org/1999/xlink" x="0px" y="0px"
	 viewBox="0 0 64 64" style="enable-background:new 0 0 64 64;" xml:space="preserve">
<style type="text/css">
	.st0{fill:none;stroke:#000000;stroke-width:2;stroke-linecap:round;stroke-miterlimit:10;}
</style>
<path id="Layer_4" class="st0" d="M15.7,43.3c3,0,5.5,2.5,5.5,5.5s-2.5,5.5-5.5,5.5s-5.5-2.5-5.5-5.5C10.2,45.7,12.6,43.3,15.7,43.3
	 M47,43.3c3,0,5.5,2.5,5.5,5.5S50,54.3,47,54.3s-5.5-2.5-5.5-5.5C41.5,45.7,43.9,43.3,47,43.3 M24.2,48.8h14.3 M7.1,48.8H4
	c-0.8,0-1.6-0.5-1.9-1.2c-0.2-0.6-0.5-1.4-0.5-2.4c0-2.8,0-28.1,0-28.1s0-2.7,2.3-2.7h34.7c1.5,0,2.7,1.2,2.8,2.6v0.1
	c0,0,4.3,0,7.5,0s4.7,2.5,4.7,2.5s5.5,8.2,7.1,10.6s1.4,3.7,1.4,3.7s0,8.7,0,12.8c0,2.1-0.7,2.1-1.4,2.1s-5.1,0-5.1,0 M41.4,17v20.6
	 M41.4,37.6H1.7 M44.7,22v10.4c0,1.1,0.9,2,2,2h8.2c1.1,0,2-0.9,2-2v-0.7c0-0.6-0.2-1.3-0.6-1.8L50,21.3c-0.4-0.5-1-0.8-1.7-0.8
	h-2.2C45.4,20.4,44.7,21.1,44.7,22z"/>
</svg>
